# xmcd
# 
# Track frame offsets:
#     150
#     19617
#     36675
#     55472
#     79350
#     100396
#     119663
#     133266
#     157517
#     179915
# 
# Disc length: 2640
# 
# Revision: 1
# Processed by: cddbd v1.5.2PL0 Copyright (c) Steve Scherf et al.
# Submitted via: fre:ac v1.0.27
# 
DISCID=920a4e0a
DTITLE=Grady Champion - Dreamin'
DYEAR=2011
DGENRE=Blues
TTITLE0=My Rooster Is King
TTITLE1=Dreamin'
TTITLE2=Weight Of The World
TTITLE3=Guilty As Charged
TTITLE4=Same Train
TTITLE5=Make That Monkey Jump
TTITLE6=Cross That Bridge
TTITLE7=Thank You For Giving Me The Blues
TTITLE8=Laugh, Smile, Cry Sometimes
TTITLE9=Walk With Me Baby
EXTD=
EXTT0=
EXTT1=
EXTT2=
EXTT3=
EXTT4=
EXTT5=
EXTT6=
EXTT7=
EXTT8=
EXTT9=
PLAYORDER=
